<svg id="Layer_1" data-name="Layer 1" xmlns="http://www.w3.org/2000/svg" viewBox="0 0 126.02 89.74"><defs><style>.cls-1{fill:#231f20;}</style></defs><title>pattalogo</title><path class="cls-1" d="M29.15,72.43s-6.4,22.14-8,30a64.86,64.86,0,0,0-.94,10,4,4,0,0,0,4.14,4.66s4.93-.13,5.07-4.66c0,0,.53-6.54,2.13-15.34L38,73.33a2.8,2.8,0,0,1,2-1.6s24.8-6.1,26.4-22.9c0,0,1.6-21.07-26.27-21.47,0,0-22.93,1.33-32,13.34a2.58,2.58,0,0,0,0,2.53s.67.8,2.4.27a48.32,48.32,0,0,1,28.94-7.87S57.55,37,57.82,48.83c0,0,.8,8.53-17.34,13.47L44,49.23s.4-3.47-2.27-3.47c0,0-3.86-.26-6.13,6L32.35,62.3a1.94,1.94,0,0,1-2.4.93,14,14,0,0,1-4.53-1.73s-4.27-1.74-6.14,1.6C19.28,63.1,14.88,70.57,29.15,72.43Z" transform="translate(-7.72 -27.36)"/><path class="cls-1" d="M52.75,93.1s-4,5.6-9.87,5.2c0,0-10.66-2.13-2-16.53,0,0,8.67-12.54,20.41-13.6,0,0,4.93.26,2.8,4.93,0,0-3.6,8-4.54,12.67,0,0-.8,2.66,1.6,2.53,0,0,2,.4,3.87-5.73l6.27-19.21-4.05.57s-3.2.8-3.5-2.4c0,0-.4-3.1,4-3.7l5.3-.9,3-8.7a5.19,5.19,0,0,1,4.7-3.3s5-.2,3.8,4.9l-1.4,4.8,6.2-.7,2.8-7.6a5.88,5.88,0,0,1,5.7-4.3s4.5.4,3.6,4.8l-1.2,5,24.51-3.3s8.5-1.8,9,3.2c0,0,.1,2.9-6.8,4.1L99,60.23a3.08,3.08,0,0,0-2.3,1.9c-.7,1.7-4.2,10.8-4.3,15.7,0,0-.1,3.3,1.4,3.3,0,0,1.1.2,1.5-2.6a24.27,24.27,0,0,1,18.21-18.3,4.56,4.56,0,0,1,4,1.7s.3,1.3,1.1.4a5.49,5.49,0,0,1,5-1.7s4.6,1.4,2.6,5.8l-4.1,9.3s-2.2,6.1,1.6,3.7a7.57,7.57,0,0,1,3.9-1.6s4.1.2,4.2,3.8c0,0,.3,7-9.3,7.6,0,0-7.3.4-8.3-4.5,0,0-.5-.5-.9,0,0,0-6.2,8.51-13.61,4.4l-1.3-1s-.5-.7-1,.2a7.07,7.07,0,0,1-5.8,3.3s-4,.91-6.2-4c0,0-.5-.6-.8.1,0,0-3.7,6-8.7,6.4,0,0-3.5,1.2-6.8-3.59,0,0-.5-.51-.7,0,0,0-3.6,5.6-8.8,5.6C59.64,96.14,55,97.27,52.75,93.1Zm57.5-17.47s4.5-6.4,2.4-7.7c0,0-1.7-1-6.11,5.4,0,0-4.1,6-1.9,7.5C104.64,80.83,106.75,82.23,110.25,75.63Zm-32.91-1.4c-2.3,9.4.7,9.3.7,9.3,2.5.4,4.5-7.2,4.5-7.2L87,61.43l-6.1.9Zm-25.6,10.4s4.4-5.7,2.4-6.9c0,0-2.4-.4-5.3,4.3,0,0-3.3,4.6-1.8,6.6C47,88.63,48.64,89.83,51.74,84.63Z" transform="translate(-7.72 -27.36)"/><path class="cls-1" d="M129.75,61.22a2.37,2.37,0,0,1-3.29,0,2.38,2.38,0,0,1,.05-3.36,2.3,2.3,0,0,1,1.61-.63,2.34,2.34,0,0,1,1.63,4Zm-3-3a1.87,1.87,0,0,0-.56,1.35,1.84,1.84,0,0,0,.57,1.37,1.9,1.9,0,0,0,2.71,0,1.86,1.86,0,0,0,.56-1.37,1.84,1.84,0,0,0-.56-1.35,1.88,1.88,0,0,0-2.72,0Zm2.11,2.51a1.2,1.2,0,0,1-.69.22,1.29,1.29,0,0,1-.92-.38,1.34,1.34,0,0,1-.38-1,1.49,1.49,0,0,1,.33-1,1.13,1.13,0,0,1,.92-.41,1.22,1.22,0,0,1,.64.16,1.14,1.14,0,0,1,.55.86h-.6a.5.5,0,0,0-.22-.38.55.55,0,0,0-.32-.1.53.53,0,0,0-.43.22,1,1,0,0,0-.17.65.91.91,0,0,0,.18.63.61.61,0,0,0,.45.19.45.45,0,0,0,.36-.13.56.56,0,0,0,.15-.32h.58A1.09,1.09,0,0,1,128.86,60.71Z" transform="translate(-7.72 -27.36)"/></svg>